<?xml version="1.0" encoding="UTF-8"?>
<svg xmlns="http://www.w3.org/2000/svg" xmlns:xlink="http://www.w3.org/1999/xlink" width="356.9237pt" height="180.1841pt" viewBox="0 0 356.9237 180.1841" version="1.1">
<defs>
<clipPath id="clip1">
  <path d="M 1 1 L 356 1 L 356 180 L 1 180 Z M 1 1 "/>
</clipPath>
<clipPath id="clip2">
  <path d="M 178.460938 1 C 276.472656 1 355.921875 40.886719 355.921875 90.09375 C 355.921875 139.296875 276.472656 179.183594 178.460938 179.183594 C 80.453125 179.183594 1 139.296875 1 90.09375 C 1 40.886719 80.453125 1 178.460938 1 "/>
</clipPath>
<radialGradient id="radial0" gradientUnits="userSpaceOnUse" cx="0" cy="0" fx="0" fy="0" r="0.5" gradientTransform="matrix(354.92372,0,0,-178.18399,178.4619,90.092)">
<stop offset="0" style="stop-color:rgb(0%,35.293579%,66.667175%);stop-opacity:1;"/>
<stop offset="0.0078125" style="stop-color:rgb(0%,35.293579%,66.667175%);stop-opacity:1;"/>
<stop offset="0.0195313" style="stop-color:rgb(0%,34.901428%,66.667175%);stop-opacity:1;"/>
<stop offset="0.03125" style="stop-color:rgb(0%,34.901428%,66.275024%);stop-opacity:1;"/>
<stop offset="0.0429688" style="stop-color:rgb(0%,34.509277%,66.275024%);stop-opacity:1;"/>
<stop offset="0.0546875" style="stop-color:rgb(0%,34.509277%,66.275024%);stop-opacity:1;"/>
<stop offset="0.0664063" style="stop-color:rgb(0%,34.509277%,66.275024%);stop-opacity:1;"/>
<stop offset="0.078125" style="stop-color:rgb(0%,34.117126%,65.882874%);stop-opacity:1;"/>
<stop offset="0.0898438" style="stop-color:rgb(0%,34.117126%,65.882874%);stop-opacity:1;"/>
<stop offset="0.101563" style="stop-color:rgb(0%,33.724976%,65.490723%);stop-opacity:1;"/>
<stop offset="0.113281" style="stop-color:rgb(0%,33.724976%,65.490723%);stop-opacity:1;"/>
<stop offset="0.125" style="stop-color:rgb(0%,33.332825%,65.490723%);stop-opacity:1;"/>
<stop offset="0.136719" style="stop-color:rgb(0%,33.332825%,65.098572%);stop-opacity:1;"/>
<stop offset="0.148438" style="stop-color:rgb(0%,32.940674%,65.098572%);stop-opacity:1;"/>
<stop offset="0.160156" style="stop-color:rgb(0%,32.940674%,65.098572%);stop-opacity:1;"/>
<stop offset="0.171875" style="stop-color:rgb(0%,32.548523%,64.706421%);stop-opacity:1;"/>
<stop offset="0.183594" style="stop-color:rgb(0%,32.548523%,64.706421%);stop-opacity:1;"/>
<stop offset="0.195313" style="stop-color:rgb(0%,32.548523%,64.706421%);stop-opacity:1;"/>
<stop offset="0.207031" style="stop-color:rgb(0%,32.156372%,64.706421%);stop-opacity:1;"/>
<stop offset="0.21875" style="stop-color:rgb(0%,32.156372%,64.31427%);stop-opacity:1;"/>
<stop offset="0.230469" style="stop-color:rgb(0%,31.764221%,64.31427%);stop-opacity:1;"/>
<stop offset="0.242188" style="stop-color:rgb(0%,31.764221%,64.31427%);stop-opacity:1;"/>
<stop offset="0.253906" style="stop-color:rgb(0%,31.37207%,63.922119%);stop-opacity:1;"/>
<stop offset="0.261719" style="stop-color:rgb(0%,31.37207%,63.922119%);stop-opacity:1;"/>
<stop offset="0.269531" style="stop-color:rgb(0%,31.37207%,63.922119%);stop-opacity:1;"/>
<stop offset="0.277344" style="stop-color:rgb(0%,31.37207%,63.922119%);stop-opacity:1;"/>
<stop offset="0.285156" style="stop-color:rgb(0%,30.979919%,63.922119%);stop-opacity:1;"/>
<stop offset="0.292969" style="stop-color:rgb(0%,30.979919%,63.529968%);stop-opacity:1;"/>
<stop offset="0.300781" style="stop-color:rgb(0%,30.979919%,63.529968%);stop-opacity:1;"/>
<stop offset="0.308594" style="stop-color:rgb(0%,30.587769%,63.529968%);stop-opacity:1;"/>
<stop offset="0.316406" style="stop-color:rgb(0%,30.587769%,63.529968%);stop-opacity:1;"/>
<stop offset="0.324219" style="stop-color:rgb(0.784302%,30.587769%,63.529968%);stop-opacity:1;"/>
<stop offset="0.332031" style="stop-color:rgb(1.568604%,30.195618%,63.529968%);stop-opacity:1;"/>
<stop offset="0.339844" style="stop-color:rgb(1.568604%,30.195618%,63.529968%);stop-opacity:1;"/>
<stop offset="0.347656" style="stop-color:rgb(2.352905%,30.195618%,63.137817%);stop-opacity:1;"/>
<stop offset="0.355469" style="stop-color:rgb(2.352905%,30.195618%,63.137817%);stop-opacity:1;"/>
<stop offset="0.363281" style="stop-color:rgb(3.137207%,29.803467%,63.137817%);stop-opacity:1;"/>
<stop offset="0.371094" style="stop-color:rgb(3.921509%,29.411316%,63.137817%);stop-opacity:1;"/>
<stop offset="0.378906" style="stop-color:rgb(3.921509%,29.411316%,63.137817%);stop-opacity:1;"/>
<stop offset="0.386719" style="stop-color:rgb(4.705811%,29.411316%,62.745667%);stop-opacity:1;"/>
<stop offset="0.394531" style="stop-color:rgb(4.705811%,29.411316%,62.745667%);stop-opacity:1;"/>
<stop offset="0.402344" style="stop-color:rgb(5.097961%,29.019165%,62.745667%);stop-opacity:1;"/>
<stop offset="0.410156" style="stop-color:rgb(5.097961%,29.019165%,62.745667%);stop-opacity:1;"/>
<stop offset="0.417969" style="stop-color:rgb(5.882263%,29.019165%,62.745667%);stop-opacity:1;"/>
<stop offset="0.425781" style="stop-color:rgb(6.274414%,28.627014%,62.353516%);stop-opacity:1;"/>
<stop offset="0.433594" style="stop-color:rgb(6.274414%,28.627014%,62.353516%);stop-opacity:1;"/>
<stop offset="0.441406" style="stop-color:rgb(7.058716%,28.627014%,62.353516%);stop-opacity:1;"/>
<stop offset="0.449219" style="stop-color:rgb(7.058716%,28.627014%,62.353516%);stop-opacity:1;"/>
<stop offset="0.457031" style="stop-color:rgb(7.450867%,28.234863%,62.353516%);stop-opacity:1;"/>
<stop offset="0.464844" style="stop-color:rgb(7.843018%,28.234863%,61.961365%);stop-opacity:1;"/>
<stop offset="0.472656" style="stop-color:rgb(7.843018%,28.234863%,61.961365%);stop-opacity:1;"/>
<stop offset="0.480469" style="stop-color:rgb(8.235168%,27.842712%,61.961365%);stop-opacity:1;"/>
<stop offset="0.488281" style="stop-color:rgb(8.235168%,27.842712%,61.961365%);stop-opacity:1;"/>
<stop offset="0.496094" style="stop-color:rgb(8.627319%,27.842712%,61.961365%);stop-opacity:1;"/>
<stop offset="0.503906" style="stop-color:rgb(9.01947%,27.450562%,61.569214%);stop-opacity:1;"/>
<stop offset="0.515625" style="stop-color:rgb(9.411621%,27.058411%,61.569214%);stop-opacity:1;"/>
<stop offset="0.527344" style="stop-color:rgb(9.803772%,27.058411%,61.569214%);stop-opacity:1;"/>
<stop offset="0.539063" style="stop-color:rgb(9.803772%,27.058411%,61.569214%);stop-opacity:1;"/>
<stop offset="0.550781" style="stop-color:rgb(10.195923%,26.66626%,61.177063%);stop-opacity:1;"/>
<stop offset="0.5625" style="stop-color:rgb(10.588074%,26.66626%,61.177063%);stop-opacity:1;"/>
<stop offset="0.574219" style="stop-color:rgb(10.980225%,26.274109%,61.177063%);stop-opacity:1;"/>
<stop offset="0.585938" style="stop-color:rgb(11.372375%,26.274109%,60.784912%);stop-opacity:1;"/>
<stop offset="0.597656" style="stop-color:rgb(11.764526%,25.881958%,60.784912%);stop-opacity:1;"/>
<stop offset="0.609375" style="stop-color:rgb(11.764526%,25.881958%,60.784912%);stop-opacity:1;"/>
<stop offset="0.621094" style="stop-color:rgb(12.156677%,25.489807%,60.392761%);stop-opacity:1;"/>
<stop offset="0.632813" style="stop-color:rgb(12.156677%,25.489807%,60.392761%);stop-opacity:1;"/>
<stop offset="0.640625" style="stop-color:rgb(12.548828%,25.097656%,60.392761%);stop-opacity:1;"/>
<stop offset="0.648438" style="stop-color:rgb(12.940979%,25.097656%,60.392761%);stop-opacity:1;"/>
<stop offset="0.65625" style="stop-color:rgb(12.940979%,25.097656%,60.392761%);stop-opacity:1;"/>
<stop offset="0.664063" style="stop-color:rgb(12.940979%,24.705505%,60.392761%);stop-opacity:1;"/>
<stop offset="0.671875" style="stop-color:rgb(12.940979%,24.705505%,60.392761%);stop-opacity:1;"/>
<stop offset="0.679688" style="stop-color:rgb(13.33313%,24.705505%,60.00061%);stop-opacity:1;"/>
<stop offset="0.6875" style="stop-color:rgb(13.725281%,24.313354%,60.00061%);stop-opacity:1;"/>
<stop offset="0.695313" style="stop-color:rgb(13.725281%,24.313354%,60.00061%);stop-opacity:1;"/>
<stop offset="0.703125" style="stop-color:rgb(13.725281%,24.313354%,60.00061%);stop-opacity:1;"/>
<stop offset="0.710938" style="stop-color:rgb(13.725281%,24.313354%,60.00061%);stop-opacity:1;"/>
<stop offset="0.71875" style="stop-color:rgb(14.117432%,23.921204%,59.608459%);stop-opacity:1;"/>
<stop offset="0.726563" style="stop-color:rgb(14.509583%,23.529053%,59.608459%);stop-opacity:1;"/>
<stop offset="0.734375" style="stop-color:rgb(14.509583%,23.529053%,59.608459%);stop-opacity:1;"/>
<stop offset="0.742188" style="stop-color:rgb(14.509583%,23.529053%,59.608459%);stop-opacity:1;"/>
<stop offset="0.75" style="stop-color:rgb(14.509583%,23.529053%,59.608459%);stop-opacity:1;"/>
<stop offset="0.757813" style="stop-color:rgb(14.901733%,23.136902%,59.216309%);stop-opacity:1;"/>
<stop offset="0.769531" style="stop-color:rgb(14.901733%,23.136902%,59.216309%);stop-opacity:1;"/>
<stop offset="0.78125" style="stop-color:rgb(15.293884%,22.744751%,59.216309%);stop-opacity:1;"/>
<stop offset="0.792969" style="stop-color:rgb(15.293884%,22.3526%,58.824158%);stop-opacity:1;"/>
<stop offset="0.804688" style="stop-color:rgb(15.686035%,22.3526%,58.824158%);stop-opacity:1;"/>
<stop offset="0.816406" style="stop-color:rgb(15.686035%,22.3526%,58.824158%);stop-opacity:1;"/>
<stop offset="0.824219" style="stop-color:rgb(16.078186%,21.960449%,58.824158%);stop-opacity:1;"/>
<stop offset="0.832031" style="stop-color:rgb(16.078186%,21.960449%,58.824158%);stop-opacity:1;"/>
<stop offset="0.839844" style="stop-color:rgb(16.078186%,21.960449%,58.824158%);stop-opacity:1;"/>
<stop offset="0.847656" style="stop-color:rgb(16.470337%,21.568298%,58.432007%);stop-opacity:1;"/>
<stop offset="0.855469" style="stop-color:rgb(16.470337%,21.568298%,58.432007%);stop-opacity:1;"/>
<stop offset="0.863281" style="stop-color:rgb(16.470337%,21.176147%,58.432007%);stop-opacity:1;"/>
<stop offset="0.871094" style="stop-color:rgb(16.470337%,21.176147%,58.432007%);stop-opacity:1;"/>
<stop offset="0.878906" style="stop-color:rgb(16.470337%,21.176147%,58.432007%);stop-opacity:1;"/>
<stop offset="0.890625" style="stop-color:rgb(16.862488%,20.783997%,58.039856%);stop-opacity:1;"/>
<stop offset="0.902344" style="stop-color:rgb(16.862488%,20.391846%,58.039856%);stop-opacity:1;"/>
<stop offset="0.914063" style="stop-color:rgb(17.254639%,20.391846%,58.039856%);stop-opacity:1;"/>
<stop offset="0.921875" style="stop-color:rgb(17.254639%,20.391846%,58.039856%);stop-opacity:1;"/>
<stop offset="0.929688" style="stop-color:rgb(17.254639%,19.999695%,58.039856%);stop-opacity:1;"/>
<stop offset="0.9375" style="stop-color:rgb(17.64679%,19.999695%,57.647705%);stop-opacity:1;"/>
<stop offset="0.945313" style="stop-color:rgb(17.64679%,19.999695%,57.647705%);stop-opacity:1;"/>
<stop offset="0.957031" style="stop-color:rgb(17.64679%,19.607544%,57.647705%);stop-opacity:1;"/>
<stop offset="0.964844" style="stop-color:rgb(17.64679%,19.215393%,57.647705%);stop-opacity:1;"/>
<stop offset="0.972656" style="stop-color:rgb(17.64679%,19.215393%,57.647705%);stop-opacity:1;"/>
<stop offset="0.984375" style="stop-color:rgb(18.03894%,19.215393%,57.255554%);stop-opacity:1;"/>
<stop offset="0.992188" style="stop-color:rgb(18.03894%,18.823242%,57.255554%);stop-opacity:1;"/>
<stop offset="1" style="stop-color:rgb(18.03894%,18.823242%,57.255554%);stop-opacity:1;"/>
</radialGradient>
</defs>
<g id="surface1">
<g clip-path="url(#clip1)" clip-rule="nonzero">
<g clip-path="url(#clip2)" clip-rule="evenodd">
<path style=" stroke:none;fill-rule:nonzero;fill:url(#radial0);" d="M 1 179.183594 L 1 1 L 355.921875 1 L 355.921875 179.183594 Z M 1 179.183594 "/>
</g>
</g>
<path style=" stroke:none;fill-rule:nonzero;fill:rgb(100%,100%,100%);fill-opacity:1;" d="M 121.566406 34.453125 C 121.464844 33.96875 121.410156 33.585938 121.398438 33.3125 C 121.363281 32.488281 121.1875 32.085938 120.871094 32.109375 C 120.089844 32.132813 119.796875 32.710938 119.988281 33.847656 C 120.03125 34.164063 120.144531 34.429688 120.328125 34.644531 C 120.523438 34.925781 120.746094 35.039063 120.988281 34.988281 C 121.1875 34.949219 121.378906 34.769531 121.566406 34.453125 Z M 120.90625 30.300781 C 120.570313 28.800781 120.046875 27.722656 119.332031 27.066406 C 118.898438 26.648438 118.304688 26.496094 117.542969 26.609375 C 116.875 26.726563 116.40625 27.082031 116.140625 27.679688 C 115.871094 28.277344 115.824219 28.988281 115.996094 29.804688 C 116.4375 29.828125 116.914063 30.222656 117.417969 30.996094 C 117.824219 31.601563 118.089844 32.15625 118.21875 32.660156 C 118.496094 31.335938 119.140625 30.566406 120.15625 30.351563 C 120.402344 30.304688 120.652344 30.285156 120.90625 30.300781 Z M 118.257813 37.324219 C 117.730469 38.566406 117.046875 39.375 116.207031 39.761719 C 115.257813 40.1875 114.402344 40.460938 113.640625 40.570313 C 111.941406 40.835938 110.363281 40.390625 108.898438 39.242188 C 107.4375 38.097656 106.457031 36.316406 105.953125 33.90625 C 105.191406 30.261719 105.535156 27.5 106.992188 25.628906 C 107.679688 24.722656 108.664063 24.136719 109.945313 23.871094 C 110.277344 23.800781 110.617188 23.765625 110.960938 23.761719 L 111.785156 27.707031 C 111.035156 27.863281 110.511719 28.34375 110.214844 29.140625 C 109.851563 30.164063 109.988281 31.703125 110.628906 33.761719 C 110.890625 34.585938 111.265625 35.21875 111.753906 35.671875 C 112.238281 36.125 112.726563 36.300781 113.210938 36.199219 C 113.566406 36.125 113.859375 35.902344 114.09375 35.53125 C 114.328125 35.15625 114.386719 34.753906 114.273438 34.316406 C 114.128906 33.746094 113.976563 33.363281 113.808594 33.167969 C 113.640625 32.972656 113.367188 32.914063 112.992188 32.992188 C 112.859375 33.019531 112.71875 33.058594 112.566406 33.113281 C 111.796875 30.414063 111.621094 28.238281 112.035156 26.582031 C 112.328125 25.4375 112.871094 24.515625 113.671875 23.820313 C 114.414063 23.179688 115.550781 22.699219 117.074219 22.382813 C 121.339844 21.492188 124.066406 23.988281 125.25 29.878906 C 125.480469 30.984375 125.488281 32.25 125.28125 33.679688 C 125.070313 35.105469 125.019531 36.0625 125.121094 36.550781 C 125.214844 37.011719 125.421875 37.453125 125.742188 37.871094 L 123.488281 38.34375 C 123.222656 38.191406 122.984375 37.976563 122.765625 37.699219 C 122.585938 38.382813 122.171875 38.789063 121.53125 38.925781 C 121.289063 38.976563 121.035156 38.972656 120.769531 38.910156 C 120.035156 38.710938 119.421875 38.144531 118.921875 37.199219 C 118.757813 36.855469 118.625 36.539063 118.511719 36.234375 C 118.46875 36.679688 118.382813 37.046875 118.257813 37.324219 Z M 108.492188 40.839844 L 112.984375 40.199219 C 113.050781 40.828125 113.601563 41.261719 114.640625 41.503906 C 115.535156 41.695313 116.621094 41.699219 117.894531 41.519531 C 119.125 41.34375 120.140625 41.039063 120.945313 40.605469 C 121.851563 40.085938 122.25 39.515625 122.136719 38.894531 L 126.699219 38.246094 C 126.957031 38.9375 126.929688 39.785156 126.617188 40.789063 C 125.789063 43.300781 123.09375 44.882813 118.535156 45.53125 C 113.683594 46.222656 110.566406 45.46875 109.179688 43.273438 C 108.683594 42.5 108.453125 41.6875 108.492188 40.839844 Z M 107.746094 22.878906 L 111.703125 22.316406 C 111.503906 22.050781 111.390625 21.800781 111.355469 21.578125 C 111.222656 20.640625 112.507813 19.976563 115.214844 19.59375 C 115.164063 19.738281 115.15625 19.90625 115.183594 20.109375 C 115.308594 20.980469 115.898438 21.503906 116.949219 21.671875 C 117.671875 21.796875 118.492188 21.792969 119.410156 21.664063 C 121.019531 21.433594 122.21875 20.957031 123.003906 20.226563 C 123.585938 19.6875 123.8125 18.949219 123.679688 18.011719 C 123.476563 16.601563 122.355469 15.78125 120.316406 15.546875 C 119.070313 15.429688 117.171875 15.550781 114.621094 15.914063 C 108.898438 16.730469 106.203125 18.308594 106.539063 20.65625 C 106.699219 21.777344 107.101563 22.515625 107.746094 22.878906 Z M 119.304688 18.292969 C 120.160156 18.214844 120.625 18.421875 120.695313 18.914063 C 120.765625 19.429688 120.335938 19.753906 119.394531 19.886719 C 118.546875 20.007813 118.074219 19.8125 117.976563 19.300781 C 117.914063 19.015625 118.039063 18.769531 118.351563 18.5625 C 118.605469 18.414063 118.921875 18.324219 119.304688 18.292969 Z M 143.191406 24.992188 L 150 24.3125 L 150.285156 27.140625 L 149.609375 27.210938 C 149.226563 27.246094 148.929688 27.4375 148.710938 27.777344 C 148.496094 28.113281 148.398438 28.5 148.417969 28.929688 C 148.5 30.167969 149.078125 30.734375 150.15625 30.628906 C 151.570313 30.484375 152.164063 29.394531 151.9375 27.351563 C 151.730469 25.488281 151.132813 24.199219 150.15625 23.480469 C 149.273438 22.839844 148.023438 22.601563 146.40625 22.765625 C 143.351563 23.070313 141.988281 25.429688 142.316406 29.847656 C 142.472656 32.097656 143.09375 33.796875 144.171875 34.9375 C 145.25 36.078125 146.722656 36.585938 148.597656 36.46875 C 150.285156 36.34375 151.480469 35.691406 152.179688 34.507813 L 156.492188 34.078125 C 156.5 35.960938 155.703125 37.527344 154.101563 38.777344 C 152.585938 39.949219 150.644531 40.621094 148.28125 40.789063 C 145.167969 41.007813 142.707031 40.199219 140.886719 38.363281 C 139.195313 36.625 138.183594 34.117188 137.855469 30.835938 C 137.097656 23.289063 139.886719 19.195313 146.222656 18.5625 C 152.246094 17.957031 155.59375 20.789063 156.265625 27.054688 C 156.761719 31.792969 154.847656 34.414063 150.515625 34.914063 C 146.613281 35.371094 144.460938 33.929688 144.058594 30.589844 C 143.9375 29.605469 144.089844 28.648438 144.519531 27.71875 L 143.476563 27.824219 Z M 164.308594 19.9375 C 166.316406 19.851563 167.941406 20.460938 169.179688 21.757813 C 170.421875 23.0625 171.089844 24.792969 171.183594 26.953125 C 171.277344 29.222656 170.789063 31.035156 169.71875 32.394531 C 168.644531 33.742188 167.046875 34.46875 164.929688 34.558594 C 162.671875 34.652344 160.933594 34.078125 159.71875 32.835938 C 158.5 31.585938 157.84375 29.785156 157.742188 27.421875 C 157.652344 25.261719 158.1875 23.496094 159.347656 22.125 C 160.511719 20.761719 162.164063 20.027344 164.308594 19.9375 Z M 163.132813 25.039063 C 162.566406 25.558594 162.308594 26.375 162.355469 27.480469 C 162.390625 28.269531 162.617188 28.878906 163.042969 29.3125 C 163.46875 29.75 164.019531 29.953125 164.695313 29.921875 C 165.328125 29.894531 165.816406 29.660156 166.160156 29.214844 C 166.566406 28.65625 166.75 27.960938 166.714844 27.125 C 166.675781 26.265625 166.414063 25.613281 165.917969 25.160156 C 165.496094 24.769531 164.988281 24.585938 164.402344 24.613281 C 163.953125 24.632813 163.527344 24.773438 163.132813 25.039063 Z M 173.148438 30.308594 C 173.703125 29.59375 174.429688 29.242188 175.332031 29.253906 C 175.917969 29.261719 176.449219 29.4375 176.917969 29.785156 C 177.632813 30.335938 177.984375 31.066406 177.96875 31.96875 C 177.960938 32.554688 177.785156 33.082031 177.4375 33.550781 C 176.886719 34.265625 176.160156 34.617188 175.257813 34.605469 C 174.667969 34.597656 174.140625 34.421875 173.671875 34.074219 C 172.957031 33.523438 172.605469 32.796875 172.617188 31.890625 C 172.628906 31.304688 172.804688 30.777344 173.148438 30.308594 Z M 202.363281 31.433594 L 202.03125 35.484375 C 202.449219 35.65625 202.882813 35.757813 203.332031 35.796875 C 204.816406 35.917969 206.148438 35.308594 207.320313 33.964844 C 208.496094 32.621094 209.191406 30.769531 209.410156 28.410156 C 209.953125 22.335938 208.054688 19.121094 203.710938 18.765625 C 202.15625 18.640625 200.933594 18.777344 200.039063 19.179688 C 199.074219 19.621094 198.289063 20.347656 197.683594 21.363281 C 196.816406 22.835938 196.371094 24.972656 196.34375 27.777344 C 196.5 27.792969 196.648438 27.804688 196.78125 27.816406 C 197.59375 27.882813 197.964844 28.429688 197.90625 29.453125 C 197.890625 29.898438 197.714844 30.265625 197.371094 30.554688 C 197.03125 30.839844 196.648438 30.964844 196.21875 30.929688 C 195.679688 30.886719 195.230469 30.582031 194.867188 30.019531 C 194.507813 29.457031 194.316406 28.734375 194.296875 27.847656 C 194.269531 25.695313 194.578125 24.179688 195.214844 23.300781 C 195.722656 22.621094 196.359375 22.308594 197.125 22.371094 L 197.457031 18.355469 C 197.125 18.257813 196.789063 18.199219 196.453125 18.171875 C 195.144531 18.0625 194.035156 18.347656 193.121094 19.019531 C 191.195313 20.402344 190.078125 22.949219 189.773438 26.664063 C 189.570313 29.117188 190.011719 31.101563 191.085938 32.617188 C 192.164063 34.132813 193.550781 35.003906 195.253906 35.234375 C 197.921875 35.589844 199.875 35.003906 201.109375 33.472656 C 201.964844 32.410156 202.457031 31.125 202.582031 29.617188 C 202.664063 28.625 202.542969 27.722656 202.226563 26.902344 C 201.851563 25.941406 201.355469 25.347656 200.742188 25.117188 C 200.964844 23.503906 201.703125 22.78125 202.957031 22.953125 C 203.609375 23.027344 204.101563 23.386719 204.433594 24.027344 C 204.839844 24.851563 204.976563 26.085938 204.84375 27.730469 C 204.613281 30.519531 203.789063 31.753906 202.363281 31.433594 Z M 210.777344 32.304688 C 211.398438 31.648438 212.15625 31.371094 213.054688 31.46875 C 213.636719 31.535156 214.144531 31.765625 214.578125 32.152344 C 215.238281 32.773438 215.515625 33.53125 215.414063 34.429688 C 215.347656 35.011719 215.121094 35.519531 214.730469 35.953125 C 214.109375 36.609375 213.351563 36.890625 212.457031 36.789063 C 211.871094 36.722656 211.363281 36.496094 210.929688 36.105469 C 210.273438 35.484375 209.996094 34.726563 210.097656 33.828125 C 210.160156 33.246094 210.390625 32.738281 210.777344 32.304688 Z M 237.425781 27.992188 C 237.425781 28.222656 237.347656 28.4375 237.191406 28.632813 C 237.035156 28.832031 236.945313 28.988281 236.921875 29.097656 C 236.769531 29.621094 236.914063 29.925781 237.355469 30.015625 C 237.6875 30.085938 237.925781 29.765625 238.074219 29.058594 C 238.214844 28.371094 237.996094 28.015625 237.425781 27.992188 Z M 232.355469 31.136719 C 232.039063 33.929688 233.328125 35.621094 236.222656 36.214844 C 237.441406 36.464844 238.53125 36.261719 239.496094 35.605469 C 240.566406 34.882813 241.347656 33.65625 241.839844 31.9375 C 242 31.371094 242.136719 30.824219 242.246094 30.292969 C 243.257813 25.359375 242.179688 22.570313 239.015625 21.921875 C 238.019531 21.714844 237.265625 21.640625 236.746094 21.695313 C 236.101563 21.796875 235.46875 22.136719 234.839844 22.722656 L 230.195313 21.773438 C 231.953125 18.375 235.050781 17.144531 239.492188 18.078125 C 242.808594 18.78125 245.050781 20.183594 246.21875 22.289063 C 247.390625 24.398438 247.539063 27.460938 246.671875 31.476563 C 245.894531 35.144531 244.699219 37.710938 243.085938 39.179688 C 241.25 40.832031 238.660156 41.3125 235.320313 40.628906 C 232.332031 40.015625 230.21875 38.8125 228.972656 37.011719 C 227.730469 35.210938 227.375 32.949219 227.910156 30.222656 C 228.363281 27.898438 229.007813 26.171875 229.835938 25.050781 C 230.246094 24.515625 230.832031 24.011719 231.59375 23.546875 C 232.515625 22.996094 233.582031 22.847656 234.800781 23.097656 C 235.21875 23.183594 235.652344 23.316406 236.101563 23.5 C 236.847656 23.792969 237.351563 24.3125 237.613281 25.054688 L 237.839844 23.960938 C 238.265625 23.886719 238.648438 23.886719 238.980469 23.953125 C 239.734375 24.105469 240.316406 24.628906 240.734375 25.523438 C 241.234375 26.570313 241.371094 27.761719 241.140625 29.097656 C 240.855469 30.722656 240.328125 31.996094 239.5625 32.925781 C 238.796875 33.851563 237.75 34.175781 236.421875 33.90625 C 234.429688 33.496094 233.542969 32.3125 233.761719 30.351563 C 233.816406 29.855469 233.972656 29.378906 234.226563 28.925781 C 234.480469 28.472656 234.625 28.164063 234.65625 28.011719 C 234.738281 27.613281 234.601563 27.378906 234.246094 27.304688 C 233.804688 27.214844 233.382813 27.644531 232.980469 28.601563 C 232.671875 29.320313 232.464844 30.167969 232.355469 31.136719 Z M 247.003906 38.914063 C 247.714844 38.359375 248.507813 38.199219 249.378906 38.4375 C 249.945313 38.59375 250.414063 38.894531 250.78125 39.347656 C 251.335938 40.058594 251.496094 40.851563 251.257813 41.722656 C 251.101563 42.289063 250.800781 42.757813 250.347656 43.125 C 249.636719 43.679688 248.84375 43.839844 247.972656 43.601563 C 247.40625 43.445313 246.9375 43.144531 246.570313 42.691406 C 246.015625 41.980469 245.855469 41.1875 246.09375 40.316406 C 246.25 39.75 246.550781 39.28125 247.003906 38.914063 "/>
<path style=" stroke:none;fill-rule:nonzero;fill:rgb(100%,100%,100%);fill-opacity:1;" d="M 41.628906 124.214844 C 40.152344 125.75 38.4375 126.304688 36.488281 125.878906 C 34.886719 125.527344 33.273438 124.570313 31.640625 123 C 30.382813 121.792969 29.417969 120.503906 28.75 119.132813 C 27.324219 118.488281 26.117188 117.691406 25.128906 116.738281 C 23.574219 115.246094 22.601563 113.632813 22.210938 111.894531 C 21.761719 109.941406 22.226563 108.25 23.589844 106.828125 C 25.132813 105.226563 27.148438 104.886719 29.625 105.824219 C 29.75 105.65625 29.933594 105.453125 30.171875 105.203125 C 32.25 103.042969 34.679688 102.109375 37.464844 102.398438 C 40 102.667969 42.378906 103.871094 44.601563 106.007813 C 46.574219 107.90625 47.804688 110.039063 48.296875 112.402344 C 48.851563 115.078125 48.214844 117.363281 46.394531 119.257813 L 43.714844 116.679688 C 44.789063 115.5625 45.132813 114.125 44.746094 112.371094 C 44.402344 110.824219 43.648438 109.496094 42.488281 108.378906 C 40.960938 106.914063 39.410156 106.097656 37.832031 105.9375 C 36.082031 105.738281 34.488281 106.390625 33.054688 107.882813 L 33.273438 108.09375 C 33.378906 108.164063 33.460938 108.226563 33.515625 108.28125 L 33.59375 108.199219 C 34.703125 107.042969 36.070313 106.585938 37.691406 106.8125 C 39.128906 107.023438 40.449219 107.710938 41.652344 108.863281 C 42.957031 110.121094 43.691406 111.503906 43.855469 113.023438 C 44.042969 114.605469 43.554688 116.082031 42.40625 117.460938 C 43.6875 120.089844 43.429688 122.339844 41.628906 124.214844 Z M 40.144531 114.28125 C 40.9375 113.167969 40.734375 112.039063 39.535156 110.890625 L 39.488281 110.84375 C 40.015625 111.808594 40.058594 112.761719 39.601563 113.707031 C 39.671875 113.777344 39.765625 113.882813 39.878906 114.027344 Z M 36.722656 112.359375 C 37.121094 111.945313 37.113281 111.53125 36.703125 111.136719 C 36.492188 110.933594 36.191406 110.84375 35.8125 110.867188 C 35.566406 110.976563 35.40625 111.070313 35.335938 111.140625 C 35.195313 111.289063 35.15625 111.515625 35.21875 111.820313 C 35.289063 112.125 35.398438 112.355469 35.550781 112.503906 C 35.90625 112.847656 36.296875 112.800781 36.722656 112.359375 Z M 37.644531 116.496094 C 37.472656 116.28125 37.226563 116.023438 36.902344 115.707031 C 35.484375 115.914063 34.273438 115.566406 33.261719 114.660156 C 32.394531 113.890625 32 112.859375 32.0625 111.574219 C 32.035156 111.550781 31.972656 111.5 31.875 111.410156 C 31.777344 111.332031 31.6875 111.253906 31.613281 111.183594 L 31.152344 110.742188 C 30.464844 112.578125 30.429688 114.5625 31.054688 116.695313 C 33.402344 117.535156 35.597656 117.46875 37.644531 116.496094 Z M 39.28125 121.710938 C 39.722656 121.25 39.820313 120.59375 39.574219 119.730469 C 37.808594 120.714844 35.8125 121.039063 33.589844 120.714844 C 33.699219 120.855469 33.890625 121.054688 34.15625 121.3125 C 34.882813 122.011719 35.726563 122.425781 36.683594 122.542969 C 37.742188 122.6875 38.609375 122.410156 39.28125 121.710938 Z M 27.191406 114.25 C 27.035156 112.429688 27.246094 110.75 27.824219 109.207031 C 27.335938 109.242188 26.90625 109.457031 26.523438 109.855469 C 25.953125 110.445313 25.757813 111.191406 25.945313 112.085938 C 26.101563 112.882813 26.492188 113.578125 27.117188 114.179688 Z M 61.085938 137.414063 C 60.285156 138.800781 58.960938 139.539063 57.105469 139.632813 C 55.417969 139.722656 53.769531 139.300781 52.15625 138.367188 C 49.773438 136.992188 48.339844 135.164063 47.855469 132.886719 C 47.402344 130.699219 47.871094 128.402344 49.261719 125.992188 C 50.71875 123.46875 52.617188 121.871094 54.945313 121.203125 C 57.28125 120.539063 59.710938 120.933594 62.242188 122.394531 C 63.375 123.046875 64.238281 123.855469 64.839844 124.828125 C 65.765625 126.324219 65.777344 127.863281 64.867188 129.4375 C 63.679688 131.496094 61.792969 131.777344 59.214844 130.289063 C 58.398438 129.816406 57.859375 129.15625 57.585938 128.289063 C 57.304688 127.429688 57.40625 126.585938 57.875 125.777344 C 58.164063 125.28125 58.550781 124.917969 59.035156 124.707031 C 57.632813 124.199219 56.417969 124.222656 55.390625 124.789063 C 54.519531 125.261719 53.6875 126.183594 52.898438 127.546875 C 50.917969 130.976563 51.144531 133.511719 53.574219 135.152344 C 53.449219 134.273438 53.640625 133.394531 54.152344 132.507813 C 54.710938 131.542969 55.542969 130.984375 56.640625 130.84375 C 57.644531 130.722656 58.652344 130.953125 59.660156 131.535156 C 62.070313 132.925781 62.546875 134.886719 61.085938 137.414063 Z M 62.273438 127.507813 C 62.527344 127.070313 62.4375 126.691406 62.007813 126.359375 C 61.421875 126.308594 61.039063 126.433594 60.867188 126.730469 C 60.554688 127.277344 60.636719 127.691406 61.121094 127.96875 C 61.566406 128.226563 61.949219 128.070313 62.273438 127.507813 Z M 58.40625 135.777344 C 58.78125 135.128906 58.648438 134.617188 58.011719 134.25 C 57.515625 133.964844 57.085938 134.136719 56.722656 134.769531 C 56.371094 135.378906 56.480469 135.851563 57.0625 136.1875 C 57.148438 136.238281 57.25 136.289063 57.363281 136.34375 C 57.839844 136.335938 58.191406 136.148438 58.40625 135.777344 Z M 73.101563 147.667969 L 60.40625 142.050781 L 66.246094 128.867188 L 70.355469 130.6875 L 66.179688 140.117188 L 70.652344 142.097656 L 74.828125 132.667969 L 78.9375 134.488281 Z M 91.707031 143.0625 L 89.460938 142.261719 L 85.882813 152.3125 L 81.816406 150.867188 L 85.394531 140.8125 L 83.242188 140.046875 L 79.6875 150.03125 L 75.484375 148.539063 L 80.320313 134.957031 L 92.988281 139.464844 Z M 94.335938 152.539063 C 94.175781 153.105469 93.8125 153.5 93.242188 153.738281 C 92.671875 153.972656 92.101563 154.003906 91.527344 153.839844 C 90.953125 153.671875 90.53125 153.316406 90.257813 152.761719 C 89.988281 152.210938 89.953125 151.648438 90.152344 151.089844 C 90.332031 150.542969 90.699219 150.136719 91.246094 149.871094 C 91.792969 149.601563 92.347656 149.542969 92.914063 149.707031 C 93.542969 149.890625 93.984375 150.246094 94.238281 150.78125 C 94.484375 151.320313 94.519531 151.90625 94.335938 152.539063 Z M 121.328125 155.769531 L 117.105469 154.917969 L 116.917969 155.84375 C 116.628906 157.273438 115.796875 158.277344 114.410156 158.859375 C 113.207031 159.363281 111.851563 159.464844 110.34375 159.160156 C 108.347656 158.757813 106.917969 157.890625 106.070313 156.574219 C 105.386719 155.5 105.171875 154.335938 105.429688 153.066406 C 105.855469 150.953125 107.011719 149.75 108.894531 149.4375 L 109.972656 144.085938 L 122.636719 146.644531 L 121.851563 150.527344 L 118.179688 149.785156 L 117.882813 151.253906 L 122.066406 152.097656 Z M 113.601563 150.277344 L 113.890625 148.84375 L 112.804688 148.625 L 112.515625 150.058594 Z M 112.625 154.570313 L 112.753906 153.929688 L 111.117188 153.601563 C 110.246094 153.425781 109.75 153.675781 109.613281 154.351563 C 109.46875 155.050781 109.824219 155.488281 110.671875 155.65625 C 111.785156 155.882813 112.433594 155.523438 112.625 154.570313 "/>
<path style=" stroke:none;fill-rule:nonzero;fill:rgb(100%,100%,100%);fill-opacity:1;" d="M 246.8125 151.933594 L 251.75 150.335938 C 252.0625 151.121094 252.445313 151.683594 252.886719 152.023438 C 253.609375 152.570313 254.476563 152.71875 255.484375 152.460938 C 256.238281 152.269531 256.777344 151.945313 257.089844 151.488281 C 257.410156 151.027344 257.507813 150.566406 257.390625 150.097656 C 257.277344 149.65625 256.984375 149.308594 256.507813 149.054688 C 256.03125 148.804688 255.050781 148.707031 253.554688 148.753906 C 251.105469 148.828125 249.277344 148.558594 248.070313 147.945313 C 246.855469 147.339844 246.078125 146.367188 245.734375 145.03125 C 245.511719 144.15625 245.554688 143.261719 245.863281 142.351563 C 246.171875 141.4375 246.78125 140.628906 247.691406 139.917969 C 248.601563 139.210938 249.945313 138.628906 251.726563 138.175781 C 253.910156 137.617188 255.679688 137.597656 257.035156 138.121094 C 258.390625 138.640625 259.402344 139.761719 260.074219 141.480469 L 255.179688 143.046875 C 254.847656 142.300781 254.425781 141.808594 253.914063 141.566406 C 253.398438 141.320313 252.769531 141.292969 252.023438 141.484375 C 251.410156 141.640625 250.976563 141.890625 250.734375 142.230469 C 250.488281 142.570313 250.414063 142.925781 250.511719 143.300781 C 250.578125 143.570313 250.769531 143.78125 251.078125 143.9375 C 251.375 144.101563 252.019531 144.160156 253 144.117188 C 255.4375 144.023438 257.21875 144.105469 258.34375 144.363281 C 259.476563 144.617188 260.367188 145.058594 261.011719 145.699219 C 261.660156 146.335938 262.101563 147.121094 262.339844 148.058594 C 262.621094 149.152344 262.578125 150.242188 262.207031 151.324219 C 261.835938 152.402344 261.171875 153.324219 260.203125 154.082031 C 259.238281 154.835938 257.929688 155.425781 256.273438 155.847656 C 253.363281 156.59375 251.207031 156.546875 249.800781 155.714844 C 248.398438 154.878906 247.398438 153.621094 246.8125 151.933594 Z M 264.582031 148.203125 L 269.554688 146.59375 L 271.066406 151.261719 L 266.09375 152.871094 Z M 267.707031 134.03125 L 272.769531 132.011719 L 277.707031 144.378906 L 285.632813 141.210938 L 287.242188 145.242188 L 274.257813 150.429688 Z M 287.238281 139.832031 L 292.023438 137.730469 L 293.996094 142.222656 L 289.210938 144.324219 Z M 287.609375 125.761719 L 302.28125 118.003906 L 304.320313 121.863281 L 299.394531 124.464844 L 305.605469 136.21875 L 300.789063 138.765625 L 294.574219 127.011719 L 289.648438 129.617188 Z M 306.332031 130.039063 L 310.730469 127.207031 L 313.382813 131.335938 L 308.988281 134.164063 Z M 304.71875 116.363281 L 312.433594 109.660156 C 313.71875 108.542969 314.980469 108.003906 316.222656 108.042969 C 317.464844 108.078125 318.492188 108.566406 319.3125 109.507813 C 319.996094 110.296875 320.339844 111.183594 320.332031 112.175781 C 320.335938 112.835938 320.113281 113.550781 319.671875 114.316406 C 320.832031 113.714844 321.875 113.496094 322.816406 113.664063 C 323.753906 113.835938 324.59375 114.34375 325.328125 115.191406 C 325.929688 115.882813 326.308594 116.644531 326.46875 117.472656 C 326.625 118.304688 326.5625 119.121094 326.289063 119.929688 C 326.113281 120.429688 325.71875 121.027344 325.097656 121.722656 C 324.277344 122.652344 323.714844 123.246094 323.410156 123.511719 L 316.300781 129.691406 Z M 313.414063 117.988281 L 315.210938 116.425781 C 315.851563 115.867188 316.207031 115.363281 316.265625 114.925781 C 316.324219 114.484375 316.171875 114.054688 315.808594 113.636719 C 315.472656 113.246094 315.078125 113.054688 314.640625 113.054688 C 314.199219 113.054688 313.664063 113.328125 313.039063 113.871094 L 311.214844 115.457031 Z M 317.960938 123.21875 L 320.0625 121.390625 C 320.769531 120.773438 321.160156 120.214844 321.234375 119.707031 C 321.308594 119.203125 321.160156 118.742188 320.792969 118.316406 C 320.449219 117.921875 320.03125 117.730469 319.535156 117.742188 C 319.039063 117.753906 318.429688 118.074219 317.707031 118.699219 L 315.613281 120.519531 Z M 326.601563 113.617188 L 329.832031 109.507813 L 333.691406 112.539063 L 330.464844 116.648438 Z M 326.601563 113.617188 "/>
<path style=" stroke:none;fill-rule:evenodd;fill:rgb(100%,79.608154%,1.568604%);fill-opacity:1;" d="M 151.714844 139.292969 L 152.765625 138.683594 L 153.214844 139.292969 C 153.816406 140.101563 155.472656 140.09375 156.570313 139.273438 L 157.410156 138.648438 L 158.117188 139.273438 C 159.042969 140.097656 160.769531 140.097656 161.875 139.277344 C 162.648438 138.703125 162.753906 138.691406 163.265625 139.128906 C 163.570313 139.390625 164.464844 139.6875 165.25 139.789063 C 166.667969 139.972656 166.691406 139.960938 167.519531 138.71875 C 168.214844 137.675781 168.324219 137.253906 168.15625 136.242188 C 168.046875 135.570313 167.929688 134.492188 167.894531 133.84375 C 167.832031 132.671875 167.839844 132.664063 169.546875 132.070313 C 170.492188 131.738281 171.585938 131.296875 171.976563 131.089844 C 172.660156 130.722656 174.542969 128.507813 174.542969 128.074219 C 174.542969 127.957031 173.808594 127.78125 172.90625 127.679688 C 169.332031 127.277344 168.726563 125.359375 171.050781 121.792969 C 174.84375 115.976563 177.128906 110.3125 177.144531 106.707031 C 177.152344 105.09375 177.242188 104.550781 177.449219 104.902344 C 178.296875 106.335938 176.78125 112.34375 174.480469 116.660156 L 173.554688 118.398438 L 174.441406 118.195313 C 174.925781 118.082031 177.78125 116.878906 180.785156 115.519531 C 189.007813 111.792969 191.832031 111.0625 197.152344 111.289063 C 201.613281 111.476563 203.511719 112.347656 206.660156 115.648438 C 208.328125 117.398438 209.933594 118.648438 212.871094 120.488281 C 219.132813 124.40625 219.394531 124.746094 219.691406 129.355469 C 219.992188 134.027344 219.84375 134.277344 216.3125 135.058594 C 213.292969 135.726563 211.402344 137.132813 210.894531 139.089844 C 210.621094 140.132813 211.191406 140.164063 212.714844 139.183594 L 213.828125 138.46875 L 214.324219 139.183594 C 214.976563 140.125 216.363281 140.132813 217.515625 139.191406 L 218.382813 138.484375 L 219.273438 139.191406 C 220.652344 140.292969 222.488281 140.027344 223.007813 138.648438 C 223.109375 138.386719 223.375 138.46875 223.910156 138.9375 C 224.921875 139.816406 227.507813 140.191406 227.785156 139.5 C 227.890625 139.238281 227.691406 138.589844 227.335938 138.058594 C 225.832031 135.800781 225.359375 134.726563 225.339844 133.5 C 225.3125 131.789063 225.824219 130.964844 227.765625 129.578125 C 230.125 127.890625 230.855469 125.710938 229.0625 125.710938 C 227.953125 125.710938 226.835938 124.734375 226.125 123.136719 C 224.675781 119.890625 224.957031 116.253906 227.132813 110.203125 C 229.339844 104.058594 229.585938 102.921875 229.59375 98.8125 C 229.601563 95.488281 229.515625 94.914063 228.761719 93.089844 C 228.296875 91.976563 227.359375 90.320313 226.675781 89.40625 L 225.433594 87.742188 L 227.03125 86.421875 C 231.90625 82.378906 230.910156 75.765625 225.039063 73.21875 C 223.242188 72.441406 222.792969 72.371094 219.644531 72.390625 C 217.757813 72.40625 214.878906 72.652344 213.246094 72.945313 C 211.582031 73.242188 208.769531 73.480469 206.839844 73.488281 C 203.769531 73.5 203.25 73.425781 202.066406 72.796875 C 200.835938 72.140625 200.625 71.828125 200.382813 70.3125 C 200.332031 70 200.117188 69.6875 199.898438 69.621094 C 199.480469 69.488281 197.542969 71.167969 197.257813 71.914063 C 197.117188 72.28125 197 72.253906 196.585938 71.765625 C 196.3125 71.4375 195.929688 70.691406 195.734375 70.105469 C 195.246094 68.625 195.84375 67.515625 197.582031 66.6875 L 198.933594 66.042969 L 198.136719 65.546875 C 196.496094 64.53125 193.707031 65.226563 192.695313 66.90625 C 192.410156 67.382813 192.097656 67.769531 192.003906 67.773438 C 191.910156 67.773438 191.367188 67.320313 190.796875 66.765625 C 188.679688 64.695313 189.410156 61.632813 192.242188 60.695313 C 193.753906 60.195313 195.089844 60.578125 195.371094 61.585938 C 195.792969 63.125 197.113281 61.101563 196.878906 59.273438 C 196.71875 58.0625 196.746094 58.019531 197.585938 58.019531 C 198.753906 58.019531 201.238281 59.550781 202.007813 60.746094 C 202.902344 62.136719 202.835938 64.320313 201.855469 65.949219 L 201.082031 67.226563 L 202.09375 67.027344 C 203.574219 66.730469 205.011719 65.808594 205.738281 64.695313 C 206.507813 63.515625 206.589844 61.21875 205.910156 59.980469 C 205.25 58.78125 205.324219 58.589844 206.300781 58.996094 C 207.964844 59.683594 208.851563 60.445313 209.519531 61.75 C 210.121094 62.925781 210.152344 63.21875 209.828125 64.441406 C 209.628906 65.195313 209.179688 66.1875 208.835938 66.644531 C 208.300781 67.359375 208.28125 67.480469 208.707031 67.480469 C 209.503906 67.480469 211.167969 66.726563 211.761719 66.097656 C 212.058594 65.777344 212.492188 64.996094 212.726563 64.355469 L 213.152344 63.195313 L 213.640625 64.082031 C 214.328125 65.332031 215.667969 66.457031 217.304688 67.160156 C 219.0625 67.914063 219.792969 67.957031 218.875 67.25 C 218.253906 66.773438 217.113281 63.421875 217.457031 63.09375 C 217.664063 62.902344 220.050781 64.738281 222.773438 67.183594 C 225.351563 69.5 226.972656 70.257813 229.339844 70.257813 C 232.363281 70.257813 234.125 67.625 232.765625 65.136719 C 231.972656 63.683594 230.207031 63.480469 229.175781 64.726563 C 228.699219 65.296875 228.570313 65.75 228.710938 66.351563 C 228.878906 67.085938 228.8125 67.183594 228.144531 67.183594 C 227.265625 67.183594 225.53125 66.058594 222.453125 63.492188 C 217.761719 59.574219 212.058594 56.253906 207.941406 55.042969 C 205.296875 54.265625 199.652344 53.960938 196.964844 54.453125 C 194.058594 54.984375 190.621094 56.648438 188.746094 58.429688 C 185.425781 61.585938 185.375 65.785156 188.605469 69.609375 L 189.53125 70.703125 L 188.90625 71.679688 C 187.992188 73.09375 188.070313 75 189.097656 76.40625 C 189.550781 77.023438 190.007813 77.527344 190.113281 77.527344 C 190.21875 77.527344 190.335938 77.132813 190.371094 76.644531 C 190.460938 75.417969 190.988281 74.59375 191.894531 74.269531 C 192.707031 73.976563 193.234375 74.113281 196.96875 75.601563 C 200.894531 77.171875 207.351563 77.277344 214.214844 75.890625 C 217.582031 75.210938 221.550781 75.25 223.296875 75.980469 C 226.496094 77.324219 227.238281 80.8125 224.886719 83.460938 C 223.867188 84.605469 222.886719 85.074219 219.589844 85.976563 C 217.078125 86.667969 216.484375 86.710938 210.78125 86.65625 C 205.90625 86.605469 204.15625 86.699219 202.164063 87.117188 C 200.007813 87.566406 198.675781 87.613281 192.332031 87.453125 L 185 87.269531 L 185.8125 87.941406 C 186.257813 88.3125 186.890625 88.765625 187.214844 88.953125 C 187.769531 89.273438 187.75 89.3125 186.929688 89.621094 C 186.445313 89.796875 185.375 89.945313 184.546875 89.945313 L 183.039063 89.945313 L 182.839844 91.222656 C 182.726563 91.925781 182.734375 92.75 182.855469 93.046875 C 183.035156 93.492188 182.96875 93.554688 182.503906 93.386719 C 182.1875 93.269531 181.304688 93.042969 180.542969 92.882813 C 179.78125 92.722656 178.757813 92.394531 178.269531 92.152344 C 177.441406 91.746094 177.351563 91.757813 177.046875 92.296875 C 176.773438 92.777344 174.226563 94.675781 173.851563 94.675781 C 173.792969 94.675781 173.714844 94.308594 173.679688 93.863281 C 173.644531 93.414063 173.277344 92.25 172.863281 91.273438 C 172.445313 90.300781 172.015625 89.234375 171.898438 88.910156 C 171.726563 88.417969 171.648438 88.394531 171.441406 88.761719 C 171.300781 89.007813 171.101563 89.671875 170.992188 90.242188 C 170.882813 90.808594 170.5 91.734375 170.140625 92.292969 L 169.480469 93.3125 L 169.0625 92.441406 C 168.613281 91.507813 167.867188 90.535156 167.597656 90.535156 C 167.507813 90.535156 167.351563 90.835938 167.253906 91.203125 C 167.046875 91.964844 165.277344 94.082031 164.84375 94.082031 C 164.683594 94.082031 164.554688 93.484375 164.554688 92.753906 C 164.554688 92.023438 164.414063 91.421875 164.242188 91.421875 C 164.070313 91.421875 163.929688 91.613281 163.929688 91.84375 C 163.929688 92.40625 162.417969 94.082031 161.910156 94.082031 C 161.691406 94.082031 161.335938 94.28125 161.121094 94.527344 C 160.5625 95.164063 160.109375 95.074219 160.34375 94.375 C 160.453125 94.046875 160.378906 93.28125 160.183594 92.675781 C 159.984375 92.066406 159.777344 91.421875 159.71875 91.238281 C 159.644531 91.007813 159.101563 91.070313 157.957031 91.4375 C 156.101563 92.03125 155.480469 91.925781 156.433594 91.179688 C 156.78125 90.90625 157.3125 89.960938 157.613281 89.082031 C 157.910156 88.199219 158.351563 87.414063 158.59375 87.339844 C 158.929688 87.238281 158.910156 87.367188 158.515625 87.902344 C 158.230469 88.285156 158 88.800781 157.996094 89.050781 C 157.996094 89.296875 157.785156 89.886719 157.523438 90.359375 C 157.265625 90.828125 157.101563 91.261719 157.160156 91.320313 C 157.222656 91.375 157.925781 91.109375 158.726563 90.722656 L 160.183594 90.027344 L 160.191406 90.648438 C 160.195313 90.992188 160.371094 91.902344 160.582031 92.664063 L 160.964844 94.054688 L 161.957031 93.597656 C 162.96875 93.132813 163.929688 91.472656 163.929688 90.183594 C 163.929688 89.550781 164.292969 89.644531 164.445313 90.324219 C 164.488281 90.519531 164.714844 91.265625 164.953125 91.976563 L 165.382813 93.273438 L 166.058594 92.457031 C 166.433594 92.007813 166.902344 91.125 167.101563 90.496094 C 167.445313 89.40625 167.988281 88.9375 167.988281 89.730469 C 167.988281 90.300781 169.546875 92.347656 169.84375 92.171875 C 169.992188 92.085938 170.28125 91.316406 170.488281 90.464844 C 170.921875 88.6875 171.621094 87.480469 172.0625 87.738281 C 172.230469 87.835938 172.296875 88.027344 172.207031 88.160156 C 172.121094 88.292969 172.480469 89.449219 173.003906 90.726563 C 173.53125 92.003906 174.058594 93.289063 174.179688 93.585938 C 174.371094 94.058594 174.546875 93.988281 175.671875 92.992188 C 176.375 92.375 177.011719 91.679688 177.089844 91.453125 C 177.203125 91.105469 177.359375 91.121094 178.015625 91.527344 C 178.933594 92.097656 182.019531 93.011719 182.257813 92.789063 C 182.347656 92.703125 182.4375 91.894531 182.460938 90.988281 L 182.5 89.339844 L 183.390625 89.523438 C 183.875 89.625 184.902344 89.621094 185.667969 89.511719 L 187.0625 89.3125 L 185.820313 88.460938 C 185.136719 87.992188 184.445313 87.386719 184.285156 87.113281 C 184.113281 86.824219 183.507813 86.578125 182.820313 86.519531 C 180.960938 86.359375 177.664063 84.511719 177.664063 83.628906 C 177.664063 83.460938 178.121094 83.742188 178.679688 84.253906 C 179.914063 85.390625 181.636719 86.101563 183.136719 86.101563 L 184.261719 86.101563 L 183.566406 85.175781 C 183.167969 84.644531 182.808594 83.636719 182.722656 82.808594 C 182.589844 81.488281 182.449219 81.277344 181.070313 80.320313 C 180.242188 79.742188 179.214844 78.878906 178.789063 78.402344 L 178.015625 77.527344 L 177.621094 78.5625 C 177.402344 79.132813 177.136719 79.597656 177.03125 79.597656 C 176.921875 79.597656 176.507813 79.265625 176.101563 78.859375 C 175.699219 78.453125 175.289063 78.121094 175.191406 78.125 C 175.089844 78.125 174.734375 78.671875 174.394531 79.339844 L 173.78125 80.554688 L 173.308594 79.855469 C 173.046875 79.46875 172.429688 78.789063 171.9375 78.34375 C 171.445313 77.894531 171.1875 77.527344 171.363281 77.527344 C 171.539063 77.527344 172.144531 77.996094 172.714844 78.5625 L 173.742188 79.597656 L 174.164063 78.839844 C 174.414063 78.390625 174.503906 77.699219 174.394531 77.140625 C 174.230469 76.324219 174.25 76.277344 174.5625 76.789063 C 174.761719 77.117188 175.367188 77.738281 175.902344 78.175781 L 176.882813 78.96875 L 177.558594 77.730469 C 178.230469 76.5 178.234375 76.496094 178.542969 77.234375 C 178.949219 78.214844 181.910156 80.644531 184.429688 82.0625 C 184.820313 82.28125 184.65625 81.527344 183.9375 79.800781 C 183.75 79.34375 183.59375 78.519531 183.59375 77.96875 C 183.59375 77.148438 183.359375 76.785156 182.3125 75.992188 C 180.804688 74.84375 180.316406 74.027344 180.03125 72.175781 C 179.917969 71.425781 179.652344 70.589844 179.445313 70.320313 C 179.136719 69.917969 179.085938 70.144531 179.167969 71.535156 C 179.222656 72.476563 179.101563 73.640625 178.898438 74.128906 L 178.527344 75.015625 L 178.238281 74.277344 C 178.078125 73.871094 177.378906 73.164063 176.683594 72.707031 C 175.984375 72.25 175.496094 71.796875 175.59375 71.703125 C 175.695313 71.609375 176.410156 72.027344 177.1875 72.628906 C 178.371094 73.550781 178.632813 73.648438 178.796875 73.246094 C 178.992188 72.769531 178.796875 70.699219 178.425781 69.253906 C 178.238281 68.53125 178.253906 68.535156 179.148438 69.425781 C 179.804688 70.082031 180.167969 70.863281 180.449219 72.234375 C 180.808594 73.96875 180.988281 74.257813 182.59375 75.667969 C 183.558594 76.515625 184.398438 77.160156 184.457031 77.101563 C 184.519531 77.046875 184.640625 74.855469 184.730469 72.234375 C 184.898438 67.210938 184.707031 66.015625 183.496094 64.464844 L 182.875 63.667969 L 183.851563 62.613281 C 185.128906 61.238281 185.714844 60.136719 185.96875 58.632813 L 186.171875 57.40625 L 185.070313 58.453125 C 184.167969 59.308594 183.738281 59.496094 182.691406 59.496094 C 181.65625 59.496094 181.25 59.324219 180.550781 58.578125 C 179.714844 57.6875 178.230469 56.828125 176.804688 56.410156 C 176.277344 56.257813 176.101563 56.324219 176.101563 56.679688 C 176.101563 56.941406 175.8125 57.695313 175.457031 58.355469 L 174.808594 59.558594 L 173.453125 58.21875 C 172.621094 57.394531 171.632813 56.757813 170.902344 56.5625 C 169.023438 56.070313 168.921875 56.117188 168.921875 57.515625 C 168.921875 59.636719 168.019531 60.03125 166.390625 58.621094 C 165.148438 57.546875 164.117188 57.316406 161.765625 57.574219 L 159.945313 57.773438 L 160.273438 58.59375 C 160.546875 59.28125 160.484375 59.570313 159.898438 60.347656 C 158.949219 61.609375 157.714844 62.15625 155.8125 62.15625 C 154.9375 62.15625 153.84375 62.339844 153.378906 62.558594 C 152.914063 62.78125 151.765625 63.035156 150.820313 63.125 C 149.875 63.21875 148.867188 63.378906 148.582031 63.484375 C 148.136719 63.652344 148.085938 63.515625 148.230469 62.496094 C 148.453125 60.941406 147.363281 59.792969 145.667969 59.792969 C 143.46875 59.792969 142.457031 61.757813 143.316406 64.355469 C 143.484375 64.851563 143.699219 65.640625 143.800781 66.101563 C 143.902344 66.585938 144.894531 67.859375 146.105469 69.074219 C 147.277344 70.242188 148.378906 71.460938 148.5625 71.777344 C 148.742188 72.09375 149.34375 72.605469 149.894531 72.910156 L 150.898438 73.46875 L 150.765625 72.394531 C 150.621094 71.214844 150.875 71.03125 151.503906 71.863281 C 151.730469 72.160156 152.296875 72.640625 152.769531 72.929688 C 153.515625 73.386719 153.628906 73.398438 153.628906 73 C 153.628906 72.75 153.78125 72.167969 153.964844 71.710938 L 154.300781 70.878906 L 154.886719 72.011719 C 155.207031 72.632813 156.253906 74.046875 157.210938 75.15625 C 159.066406 77.304688 160.195313 79.703125 159.613281 80.257813 C 159.375 80.480469 158.738281 80.464844 157.410156 80.195313 C 156.382813 79.988281 155.109375 79.878906 154.585938 79.953125 C 153.511719 80.101563 153.425781 79.964844 154.085938 79.136719 C 154.785156 78.265625 154.671875 78.121094 153.304688 78.121094 C 151.71875 78.121094 147.785156 77.359375 146.273438 76.761719 C 144.804688 76.179688 144.464844 76.328125 144.03125 77.71875 C 143.839844 78.347656 143.480469 79.480469 143.242188 80.242188 L 142.804688 81.628906 L 144.390625 81.476563 C 145.265625 81.390625 146.390625 81.199219 146.890625 81.050781 C 147.390625 80.902344 147.84375 80.820313 147.898438 80.875 C 147.957031 80.925781 147.734375 81.46875 147.40625 82.074219 L 146.808594 83.183594 L 147.800781 82.980469 C 148.34375 82.871094 149.164063 82.597656 149.621094 82.375 C 150.417969 81.992188 150.480469 82.019531 151.109375 83.027344 C 151.878906 84.265625 152.496094 84.214844 152.632813 82.902344 C 152.777344 81.542969 153.222656 81.742188 154.0625 83.542969 C 154.871094 85.273438 155.710938 85.882813 155.871094 84.859375 C 155.925781 84.519531 156.359375 83.964844 156.839844 83.625 C 157.804688 82.945313 158.535156 83.148438 158.953125 84.21875 C 159.386719 85.328125 158.421875 86.46875 155.613281 88.171875 C 149.992188 91.578125 146.722656 96.242188 145.789063 102.183594 C 144.949219 107.539063 147.578125 113.078125 152.851563 117.054688 C 155.375 118.960938 159.382813 120.96875 159.128906 120.203125 C 158.046875 116.945313 158.082031 110.734375 159.1875 109.6875 C 159.355469 109.53125 159.296875 110.179688 159.0625 111.128906 C 158.183594 114.664063 158.5625 117.480469 160.816406 124.085938 C 162.851563 130.058594 162.570313 132.613281 159.6875 134.300781 C 158.761719 134.84375 158.167969 134.933594 155.675781 134.902344 C 152.976563 134.871094 152.679688 134.921875 151.8125 135.613281 C 150.972656 136.285156 149.882813 138.484375 149.882813 139.511719 C 149.882813 140.066406 150.5 139.992188 151.714844 139.292969 Z M 182.929688 69.839844 C 182.207031 69.191406 181.710938 68.570313 181.824219 68.460938 C 181.9375 68.351563 182.066406 68.320313 182.109375 68.390625 C 182.152344 68.460938 182.742188 69.082031 183.421875 69.773438 C 184.984375 71.355469 184.664063 71.402344 182.929688 69.839844 Z M 165.28125 76.011719 C 163.296875 74.355469 162.996094 73.976563 163.039063 73.191406 L 163.085938 72.355469 L 163.214844 73.160156 C 163.292969 73.632813 163.820313 74.339844 164.484375 74.859375 L 165.625 75.75 L 166.328125 74.9375 C 166.714844 74.492188 167.035156 73.960938 167.039063 73.757813 C 167.054688 73.230469 167.152344 73.273438 168.496094 74.4375 C 169.6875 75.476563 169.707031 75.480469 169.882813 74.808594 C 169.984375 74.433594 169.949219 73.730469 169.804688 73.242188 C 169.414063 71.90625 169.492188 71.703125 170.082031 72.511719 C 170.378906 72.914063 170.851563 73.480469 171.136719 73.773438 C 171.628906 74.28125 171.660156 74.277344 171.84375 73.625 C 171.949219 73.25 172.039063 72.566406 172.039063 72.105469 L 172.046875 71.265625 L 173.121094 72.484375 C 174.125 73.625 174.21875 73.664063 174.527344 73.121094 C 174.707031 72.804688 174.855469 72.035156 174.859375 71.414063 C 174.863281 70.613281 174.945313 70.410156 175.152344 70.714844 C 175.492188 71.226563 175.253906 72.613281 174.625 73.792969 L 174.175781 74.644531 L 173.582031 73.722656 C 172.824219 72.542969 172.574219 72.558594 172.085938 73.832031 C 171.628906 75.035156 171.328125 75.128906 170.882813 74.203125 C 170.59375 73.605469 170.539063 73.675781 170.332031 74.933594 L 170.101563 76.332031 L 167.367188 74.207031 L 166.75 74.90625 C 166.410156 75.292969 166.128906 75.773438 166.125 75.976563 C 166.113281 76.417969 165.78125 76.429688 165.28125 76.011719 Z M 173.605469 87.484375 C 173.605469 87.050781 172.332031 85.875 171.039063 85.117188 C 170.027344 84.523438 169.859375 84.503906 169.855469 84.992188 C 169.855469 85.726563 169.199219 87.578125 168.941406 87.578125 C 168.796875 87.578125 168.582031 87.214844 168.464844 86.773438 C 168.347656 86.332031 167.855469 85.460938 167.375 84.839844 L 166.496094 83.707031 L 165.808594 84.753906 C 165.171875 85.734375 164.066406 86.691406 163.578125 86.691406 C 163.460938 86.691406 163.4375 86.175781 163.527344 85.546875 C 163.621094 84.863281 163.546875 84.320313 163.339844 84.199219 C 163.148438 84.085938 162.992188 84.125 162.992188 84.285156 C 162.992188 84.652344 161.457031 86.394531 161.132813 86.394531 C 161 86.394531 160.8125 85.894531 160.714844 85.285156 C 160.621094 84.675781 160.460938 83.710938 160.355469 83.144531 C 160.253906 82.574219 160.472656 82.960938 160.84375 84 L 161.515625 85.894531 L 162.25 84.738281 C 162.65625 84.105469 162.988281 83.414063 162.992188 83.199219 C 162.992188 82.988281 163.128906 82.894531 163.296875 82.988281 C 163.460938 83.089844 163.695313 83.851563 163.8125 84.683594 L 164.023438 86.203125 L 164.835938 85.3125 C 165.28125 84.824219 165.804688 84.167969 165.996094 83.855469 C 166.339844 83.300781 166.359375 83.300781 167.042969 83.882813 C 167.425781 84.207031 168.015625 84.984375 168.351563 85.609375 C 168.691406 86.234375 169.011719 86.703125 169.066406 86.644531 C 169.121094 86.589844 169.246094 85.945313 169.339844 85.210938 C 169.4375 84.480469 169.523438 83.855469 169.53125 83.820313 C 169.578125 83.640625 171.972656 85.199219 172.859375 85.984375 C 173.429688 86.492188 173.972656 86.835938 174.0625 86.75 C 174.15625 86.664063 174.230469 85.914063 174.230469 85.089844 C 174.230469 83.808594 174.09375 83.464844 173.308594 82.761719 C 172.40625 81.957031 172.382813 81.953125 172.050781 82.542969 C 171.617188 83.308594 171.109375 83.316406 171.109375 82.5625 C 171.109375 82.011719 169.40625 79.890625 168.960938 79.890625 C 168.847656 79.890625 168.488281 80.355469 168.164063 80.925781 C 167.839844 81.496094 167.492188 81.960938 167.390625 81.960938 C 166.953125 81.957031 164.554688 79.28125 164.554688 78.796875 C 164.554688 78.414063 164.714844 78.511719 165.136719 79.152344 C 165.457031 79.640625 166.097656 80.367188 166.558594 80.769531 C 167.492188 81.585938 167.828125 81.386719 168.191406 79.816406 C 168.292969 79.371094 168.472656 79.003906 168.585938 79.003906 C 168.984375 79.003906 171.074219 81.226563 171.371094 81.960938 L 171.664063 82.699219 L 171.886719 81.886719 C 172.160156 80.894531 172.464844 80.855469 172.898438 81.761719 C 173.082031 82.140625 173.984375 82.929688 174.902344 83.515625 L 176.570313 84.574219 L 176.90625 83.507813 C 177.089844 82.921875 177.332031 82.582031 177.449219 82.757813 C 177.617188 83.019531 177.183594 84.789063 176.855469 85.167969 C 176.808594 85.226563 176.265625 84.910156 175.65625 84.46875 L 174.542969 83.664063 L 174.539063 85.105469 C 174.535156 85.894531 174.449219 86.84375 174.34375 87.207031 C 174.140625 87.921875 173.605469 88.125 173.605469 87.484375 Z M 173.808594 63.726563 C 173.351563 63.296875 173.707031 63.191406 175.753906 63.152344 C 178.289063 63.105469 179.828125 62.683594 181.640625 61.535156 C 183.097656 60.617188 183.492188 60.796875 182.109375 61.75 C 180.851563 62.621094 178.886719 63.285156 176.992188 63.492188 C 176.074219 63.589844 175.027344 63.726563 174.664063 63.796875 C 174.304688 63.863281 173.917969 63.832031 173.808594 63.726563 Z M 159.421875 67.410156 C 158.765625 66.523438 158.808594 65.933594 159.609375 64.972656 C 160.1875 64.277344 160.453125 64.179688 161.460938 64.308594 C 162.109375 64.390625 163.5 64.964844 164.554688 65.578125 C 165.773438 66.292969 167.035156 66.769531 168.011719 66.886719 C 168.855469 66.992188 169.546875 67.03125 169.546875 66.976563 C 169.546875 66.917969 169.195313 66.347656 168.769531 65.703125 C 167.75 64.175781 167.785156 64.011719 168.933594 64.925781 C 170.113281 65.867188 171.523438 66.140625 174.679688 66.046875 L 176.21875 66 L 175.324219 65.113281 C 174.074219 63.878906 174.460938 63.769531 175.839844 64.964844 C 177.136719 66.089844 177.054688 66.167969 174.328125 66.441406 C 173.171875 66.558594 171.925781 66.472656 170.890625 66.210938 C 169.339844 65.816406 169.28125 65.820313 169.574219 66.339844 C 169.742188 66.640625 170.019531 66.886719 170.183594 66.886719 C 170.347656 66.886719 170.484375 67.035156 170.484375 67.222656 C 170.484375 67.792969 167.140625 67.292969 165.539063 66.480469 C 161.886719 64.632813 161.429688 64.472656 160.558594 64.746094 C 160.074219 64.898438 159.589844 65.34375 159.425781 65.792969 C 158.867188 67.285156 160.984375 68.441406 161.855469 67.125 C 162.109375 66.742188 162.050781 66.480469 161.605469 66.015625 C 160.996094 65.378906 161.054688 65.289063 161.875 65.585938 C 162.457031 65.796875 162.535156 67.199219 161.996094 67.714844 C 161.375 68.300781 159.957031 68.132813 159.421875 67.410156 Z M 159.421875 67.410156 "/>
<path style=" stroke:none;fill-rule:evenodd;fill:rgb(100%,79.608154%,1.568604%);fill-opacity:1;" d="M 195.5625 139.171875 L 196.695313 138.441406 L 197.464844 139.171875 C 198.472656 140.125 199.652344 140.105469 200.621094 139.113281 C 201.042969 138.683594 201.421875 138.382813 201.464844 138.449219 C 201.507813 138.515625 201.695313 138.835938 201.882813 139.160156 C 202.125 139.570313 202.617188 139.78125 203.503906 139.84375 C 204.574219 139.917969 204.863281 139.8125 205.289063 139.199219 L 205.792969 138.464844 L 206.910156 139.183594 C 209.964844 141.144531 211.589844 139.085938 210.226563 134.984375 C 209.53125 132.902344 209.914063 131.730469 212.152344 129.074219 C 213.09375 127.957031 213.867188 126.761719 213.867188 126.421875 C 213.867188 125.878906 213.691406 125.804688 212.4375 125.832031 C 211.234375 125.855469 210.886719 125.726563 210.253906 125.03125 C 209.222656 123.898438 209.285156 122.601563 210.433594 121.160156 L 211.351563 120.011719 L 209.722656 118.90625 C 208.828125 118.296875 207.210938 116.859375 206.132813 115.710938 C 203.710938 113.125 201.328125 111.902344 198.183594 111.621094 L 196.078125 111.4375 L 196.082031 113.03125 C 196.085938 115.082031 197.046875 117.058594 199.679688 120.402344 C 202.667969 124.207031 202.875 124.796875 202.996094 129.765625 L 203.101563 133.972656 L 202.234375 134.792969 C 201.453125 135.535156 201.101563 135.628906 198.578125 135.773438 C 196.175781 135.914063 195.671875 136.035156 194.964844 136.660156 C 194.03125 137.492188 193.75 137.941406 193.460938 139.085938 C 193.292969 139.753906 193.359375 139.898438 193.84375 139.898438 C 194.164063 139.898438 194.941406 139.570313 195.5625 139.171875 Z M 195.5625 139.171875 "/>
<path style=" stroke:none;fill-rule:evenodd;fill:rgb(100%,79.608154%,1.568604%);fill-opacity:1;" d="M 131.292969 128.304688 C 131.5625 127.945313 131.78125 127.359375 131.78125 127.007813 C 131.78125 126.476563 132.019531 126.335938 133.1875 126.167969 L 134.589844 125.96875 L 133.652344 125.222656 C 132.539063 124.335938 132.4375 123.640625 133.417969 123.640625 C 134.394531 123.640625 136.050781 122.625 136.304688 121.875 C 136.421875 121.523438 136.347656 121.058594 136.136719 120.820313 C 135.589844 120.195313 134.558594 120.289063 134.367188 120.980469 C 134.160156 121.726563 133.816406 121.726563 133.035156 120.988281 C 131.863281 119.875 131.835938 117.574219 132.980469 116.230469 C 133.523438 115.601563 133.519531 115.558594 132.828125 114.90625 C 132.085938 114.203125 131.558594 112.816406 131.90625 112.484375 C 132.015625 112.378906 132.601563 112.464844 133.207031 112.671875 C 134.066406 112.964844 134.40625 112.96875 134.761719 112.691406 C 135.832031 111.847656 134.671875 110.765625 132.949219 111.003906 C 132.257813 111.101563 131.972656 111.003906 131.875 110.644531 C 131.796875 110.371094 131.191406 110.015625 130.511719 109.84375 C 129.292969 109.535156 129.28125 109.539063 129.28125 110.378906 C 129.28125 111.300781 128.757813 111.472656 127.757813 110.882813 C 126.949219 110.402344 126.160156 110.777344 126.160156 111.640625 C 126.160156 112.445313 126.972656 112.84375 128.425781 112.75 C 129.539063 112.679688 129.582031 113.507813 128.523438 114.695313 L 127.761719 115.554688 L 128.363281 116.417969 C 129.257813 117.703125 129.183594 119.832031 128.207031 120.890625 L 127.441406 121.71875 L 126.941406 121.054688 C 126.242188 120.128906 125.289063 120.191406 125.027344 121.179688 C 124.855469 121.824219 125 122.121094 125.808594 122.804688 C 126.351563 123.265625 127.144531 123.640625 127.570313 123.640625 C 128.625 123.640625 128.585938 124.472656 127.488281 125.308594 L 126.628906 125.964844 L 127.957031 126.171875 C 128.6875 126.285156 129.285156 126.496094 129.285156 126.644531 C 129.285156 127.207031 130.203125 128.960938 130.496094 128.960938 C 130.667969 128.960938 131.027344 128.664063 131.292969 128.304688 Z M 131.292969 128.304688 "/>
<path style=" stroke:none;fill-rule:evenodd;fill:rgb(100%,79.608154%,1.568604%);fill-opacity:1;" d="M 148.566406 120.816406 C 149.773438 120.34375 152.382813 118.136719 152.382813 117.589844 C 152.382813 117.417969 151.660156 116.625 150.78125 115.828125 C 148.929688 114.152344 146.914063 111.332031 146.394531 109.683594 C 146.121094 108.824219 144.804688 107.351563 141.101563 103.757813 L 136.171875 98.976563 L 134.753906 99.335938 C 133.972656 99.535156 133.019531 99.703125 132.632813 99.707031 C 131.972656 99.71875 131.984375 99.753906 132.863281 100.4375 L 133.792969 101.152344 L 135.09375 100.433594 C 136.351563 99.730469 136.398438 99.726563 136.554688 100.292969 C 136.644531 100.621094 136.449219 101.191406 136.101563 101.613281 C 135.761719 102.019531 135.570313 102.480469 135.671875 102.636719 C 135.773438 102.792969 135.449219 103.125 134.949219 103.367188 C 134.023438 103.820313 133.382813 105.3125 134.113281 105.3125 C 134.769531 105.3125 136.21875 103.527344 136.050781 102.921875 C 135.96875 102.609375 136.007813 102.292969 136.144531 102.214844 C 136.707031 101.882813 136.671875 103.285156 136.101563 103.976563 C 135.761719 104.382813 135.570313 104.84375 135.671875 105.003906 C 135.773438 105.160156 135.449219 105.488281 134.949219 105.734375 C 134.03125 106.183594 133.382813 107.679688 134.105469 107.679688 C 134.816406 107.679688 136.242188 105.96875 136.066406 105.332031 C 135.972656 104.996094 136.007813 104.65625 136.144531 104.578125 C 136.523438 104.355469 136.730469 105.464844 136.410156 106.007813 C 136.238281 106.296875 136.238281 106.695313 136.414063 107.007813 C 136.726563 107.578125 136.40625 108.675781 135.828125 109.015625 C 135.578125 109.160156 135.746094 109.449219 136.351563 109.90625 C 137.226563 110.566406 137.242188 110.632813 137.242188 113.550781 C 137.242188 115.988281 137.339844 116.617188 137.789063 117.042969 C 138.292969 117.519531 138.335938 117.519531 138.335938 117.0625 C 138.335938 116.566406 139.210938 115.953125 139.925781 115.953125 C 140.136719 115.953125 141.457031 117.074219 142.859375 118.441406 C 144.269531 119.816406 145.746094 120.984375 146.164063 121.0625 C 146.578125 121.136719 147.027344 121.214844 147.164063 121.234375 C 147.296875 121.257813 147.929688 121.070313 148.566406 120.820313 Z M 148.566406 120.816406 "/>
<path style=" stroke:none;fill-rule:evenodd;fill:rgb(100%,79.608154%,1.568604%);fill-opacity:1;" d="M 133.496094 109.027344 C 133.496094 108.242188 131.875 107.402344 129.9375 107.183594 C 128.371094 107.007813 128.347656 107.019531 128.347656 107.800781 C 128.347656 108.449219 128.59375 108.703125 129.675781 109.171875 C 131.410156 109.929688 133.496094 109.847656 133.496094 109.027344 "/>
<path style=" stroke:none;fill-rule:evenodd;fill:rgb(100%,79.608154%,1.568604%);fill-opacity:1;" d="M 135.273438 108.953125 C 136.066406 108.238281 136.4375 107.382813 135.964844 107.382813 C 135.417969 107.382813 133.964844 108.6875 133.964844 109.175781 C 133.964844 109.945313 134.234375 109.898438 135.273438 108.953125 "/>
<path style=" stroke:none;fill-rule:evenodd;fill:rgb(100%,79.608154%,1.568604%);fill-opacity:1;" d="M 133.589844 106.628906 C 133.65625 106.1875 133.382813 105.890625 132.558594 105.519531 C 130.785156 104.71875 128.667969 104.347656 128.15625 104.75 C 127.214844 105.488281 127.84375 106.480469 129.363281 106.660156 C 129.972656 106.730469 130.804688 106.917969 131.207031 107.074219 C 132.375 107.527344 133.484375 107.320313 133.589844 106.628906 "/>
<path style=" stroke:none;fill-rule:evenodd;fill:rgb(100%,79.608154%,1.568604%);fill-opacity:1;" d="M 133.589844 104.257813 C 133.683594 103.625 133.28125 103.398438 129.980469 102.234375 C 127.515625 101.367188 126.421875 101.777344 127.210938 103.273438 C 127.484375 103.792969 127.945313 104.03125 128.976563 104.1875 C 129.746094 104.300781 130.796875 104.527344 131.3125 104.6875 C 132.6875 105.113281 133.480469 104.964844 133.589844 104.257813 "/>
<path style=" stroke:none;fill-rule:evenodd;fill:rgb(100%,79.608154%,1.568604%);fill-opacity:1;" d="M 135.242188 102.03125 C 135.742188 101.527344 136.148438 100.929688 136.148438 100.707031 C 136.148438 99.984375 134.179688 101.265625 133.929688 102.152344 C 133.628906 103.21875 134.117188 103.171875 135.242188 102.03125 "/>
<path style=" stroke:none;fill-rule:evenodd;fill:rgb(100%,79.608154%,1.568604%);fill-opacity:1;" d="M 133.589844 101.882813 C 133.699219 101.160156 132.5 100.511719 130.144531 100.011719 C 128.414063 99.644531 127.652344 99.851563 127.78125 100.65625 C 127.851563 101.09375 128.429688 101.414063 130.0625 101.925781 C 132.675781 102.738281 133.460938 102.730469 133.589844 101.882813 "/>
<path style=" stroke:none;fill-rule:evenodd;fill:rgb(100%,79.608154%,1.568604%);fill-opacity:1;" d="M 135.894531 98.527344 C 138.914063 97.183594 139.171875 93.796875 136.328125 92.90625 C 135.144531 92.539063 134.390625 92.734375 133.9375 93.535156 C 133.589844 94.148438 133.824219 95.265625 134.296875 95.265625 C 134.457031 95.265625 134.589844 95.472656 134.589844 95.722656 C 134.589844 96.898438 129.980469 97.433594 128.089844 96.476563 C 127.425781 96.136719 127.136719 95.265625 127.6875 95.265625 C 128.101563 95.265625 128.386719 94.375 128.175781 93.746094 C 127.886719 92.886719 127.023438 92.589844 125.769531 92.917969 C 122.9375 93.65625 123.019531 96.984375 125.898438 98.394531 C 128.261719 99.550781 133.441406 99.621094 135.894531 98.53125 Z M 135.894531 98.527344 "/>
<path style=" stroke:none;fill-rule:evenodd;fill:rgb(100%,79.608154%,1.568604%);fill-opacity:1;" d="M 134.015625 95.921875 C 134.191406 95.757813 134.113281 95.503906 133.820313 95.273438 C 133.179688 94.769531 133.214844 94.019531 133.917969 93.160156 C 134.445313 92.515625 134.511719 91.550781 134.695313 81.8125 C 135.007813 65.035156 136.257813 52.414063 137.902344 49.386719 C 138.554688 48.179688 138.464844 48.175781 136.773438 49.328125 C 134.59375 50.808594 132.933594 52.738281 131.460938 55.503906 C 128.6875 60.722656 127.722656 67.746094 127.722656 82.734375 C 127.722656 91.242188 127.78125 92.355469 128.265625 93.15625 C 128.726563 93.914063 128.75 94.195313 128.425781 95.007813 C 128.214844 95.535156 128.121094 96.035156 128.214844 96.125 C 128.835938 96.710938 133.347656 96.554688 134.015625 95.925781 Z M 134.015625 95.921875 "/>
<path style=" stroke:none;fill-rule:evenodd;fill:rgb(100%,79.608154%,1.568604%);fill-opacity:1;" d="M 159.378906 79.921875 C 159.476563 79.777344 159.265625 79.046875 158.917969 78.296875 C 158.371094 77.128906 158.152344 76.933594 157.375 76.933594 C 154.9375 76.933594 151.023438 75.847656 146.988281 74.046875 C 144.660156 73.007813 143.855469 72.769531 143.574219 73.035156 C 142.859375 73.710938 144.046875 75.3125 145.882813 76.15625 C 147.507813 76.902344 152.058594 77.820313 154.136719 77.820313 C 155.339844 77.820313 155.371094 77.875 154.683594 78.867188 L 154.179688 79.597656 L 155.542969 79.628906 C 156.292969 79.648438 157.328125 79.765625 157.839844 79.890625 C 159.179688 80.214844 159.191406 80.214844 159.382813 79.921875 Z M 159.378906 79.921875 "/>
</g>
</svg>
